<svg xmlns="http://www.w3.org/2000/svg" xmlns:xlink="http://www.w3.org/1999/xlink" viewBox="0 0 265.25 175.25"><defs><style>.cls-1{stroke:#000;stroke-miterlimit:10;stroke-width:0.25px;fill:url(#linear-gradient);}.cls-2{fill:#303030;}.cls-3{fill:#fff;}</style><linearGradient id="linear-gradient" x1="132.63" y1="-23.18" x2="132.63" y2="155.77" gradientUnits="userSpaceOnUse"><stop offset="0" stop-color="#fff"/><stop offset="0.11" stop-color="#dfdfdf"/><stop offset="0.34" stop-color="#8c8c8c"/><stop offset="0.68" stop-color="#0a0a0a"/><stop offset="0.7" stop-color="#020202"/><stop offset="1" stop-color="#606060"/></linearGradient></defs><title>Asset 1</title><g id="Layer_2" data-name="Layer 2"><g id="Layer_4" data-name="Layer 4"><rect class="cls-1" x="0.13" y="0.13" width="265" height="175" rx="5"/><rect x="5.13" y="5.12" width="255" height="165" rx="5"/><rect class="cls-2" x="10.13" y="10.13" width="245" height="155" rx="5"/><path class="cls-3" d="M31.59,41.56l13-8.63v-.18l-13-8.64v-4.2L48.47,31.19v3.3L31.59,45.77Z" transform="translate(-7.13)"/><path class="cls-3" d="M56.49,50.64H78v3.64H56.49Z" transform="translate(-7.13)"/><path class="cls-3" d="M91.26,40.05V19.5H83.73V15.94h12V40.32c0,3,1.73,4.27,4.13,4.27a9.73,9.73,0,0,0,3.92-.92L104.85,47a14.39,14.39,0,0,1-6,1.28C93.91,48.26,91.26,45.34,91.26,40.05Z" transform="translate(-7.13)"/><path class="cls-3" d="M110.88,39.41V25.82h4.46v13c0,3.79,1.27,5.59,4.56,5.59,2.29,0,3.95-1,6.14-3.61v-15h4.46v21.9h-3.69l-.35-3.65h-.18c-2.14,2.48-4.64,4.19-8,4.19C113.19,48.26,110.88,45.11,110.88,39.41Z" transform="translate(-7.13)"/><path class="cls-3" d="M140.66,25.82h3.69l.4,5.08h.11a11.17,11.17,0,0,1,9.54-5.62,9.16,9.16,0,0,1,4.3.9l-1,3.79a11,11,0,0,0-4-.7c-3.14,0-6.16,1.6-8.59,6V47.72h-4.46Z" transform="translate(-7.13)"/><path class="cls-3" d="M164.3,36.73a11.05,11.05,0,0,1,11.23-11.45c6.43,0,10.09,4.22,10.09,10.34a16,16,0,0,1-.21,2.42h-18V34.77h15.24l-1,1.09c0-4.74-2.3-7.12-6-7.12s-7,2.83-7,8c0,5.38,3.37,8,8.08,8a11.89,11.89,0,0,0,6.4-1.93l1.56,2.82a15.5,15.5,0,0,1-8.53,2.6C169.55,48.26,164.3,44,164.3,36.73Z" transform="translate(-7.13)"/></g></g></svg>